<?xml version="1.0" encoding="UTF-8" standalone="no"?><svg width="311" height="35" viewBox="0 0 311 35" fill="none" xmlns="http://www.w3.org/2000/svg">
<path d="M0.832001 35V0.823975H7.792L20.512 19.448H17.488L30.16 0.823975H37.12V35H27.616V16.568L29.008 16.952L22.048 26.936H15.904L8.992 16.952L10.336 16.568V35H0.832001Z" fill="#ECEBE4"/>
<path d="M95.5068 35L108.515 0.823975H118.307L131.171 35H121.187L111.635 5.95997H115.091L105.299 35H95.5068ZM103.955 29.24V21.752H123.059V29.24H103.955Z" fill="#ECEBE4"/>
<path d="M210.287 35L201.263 19.784H200.447L187.631 0.823975H199.055L207.791 15.176H208.607L221.567 35H210.287ZM187.007 35L199.295 16.712L207.071 19.976L197.999 35H187.007ZM208.751 19.112L200.975 15.848L209.951 0.823975H220.943L208.751 19.112Z" fill="#ECEBE4"/>
<path d="M290.341 23.24L277.333 0.823975H288.373L298.213 19.112H289.957L299.797 0.823975H310.597L297.493 23.24H290.341ZM289.237 35V19.736H298.837V35H289.237Z" fill="#ECEBE4"/>
</svg>
